<svg width="80" height="20" fill="none" xmlns="http://www.w3.org/2000/svg"><path d="M16.023 1.512a.426.426 0 00-.141.299 3.214 3.214 0 00-.018.316c.059.059.1.105.123.14-.28.376-.556.75-.826 1.126-.258.375-.504.761-.738 1.16-.07.105-.14.217-.211.334a1.82 1.82 0 00-.176.334l.035.07c.024.012.035.03.035.053a.471.471 0 01-.087.228 3.138 3.138 0 00-.141.282.845.845 0 00-.053.298c0 .094.047.188.14.282-.468.55-.896 1.13-1.282 1.74a94.581 94.581 0 00-1.143 1.81l.053.053c.176.223.34.357.492.404.164.036.38.059.65.07.211.012.41.036.598.071.188.035.334.164.44.387-.083.199-.182.328-.3.386a3.475 3.475 0 01-.474.141 2.57 2.57 0 00-.281.088 8.23 8.23 0 01-.264.07.887.887 0 01-.352 0 3.498 3.498 0 00-.369-.052 1.07 1.07 0 00-.386 0 .626.626 0 00-.352.175 2.62 2.62 0 00-.14.264c-.082.152-.188.352-.317.598-.117.246-.252.515-.404.808a16.6 16.6 0 01-.422.826l-.334.668-.176.352c.024.035.053.076.088.123l.088.088c-.07.234-.123.475-.158.72-.035.247-.065.499-.088.756a12.32 12.32 0 00-.053.704c0 .234-.017.462-.053.685a3.109 3.109 0 01-.175.668 1.68 1.68 0 01-.387.58.527.527 0 01-.334-.158 1.243 1.243 0 01-.246-.299c-.07-.117-.14-.24-.211-.369a1.46 1.46 0 00-.194-.299c.165-.234.252-.469.264-.703a7.39 7.39 0 000-.72c-.012-.235 0-.463.035-.686.035-.223.159-.434.37-.633a20.57 20.57 0 01-.211-.598c-.06-.175.011-.363.21-.562H8.13a.984.984 0 00.246-.176l.246-.246c-.176-.105-.258-.188-.246-.246.012-.07.059-.135.14-.194.083-.07.17-.152.264-.246.106-.093.158-.228.158-.404l-.105-.123.053-.053c.129-.058.205-.117.228-.175a.683.683 0 00.053-.3h-.018v-.017a.833.833 0 00-.28-.387 1.496 1.496 0 00-.388-.193 3.617 3.617 0 00-.421-.123 1.365 1.365 0 01-.405-.176l-.176.176c-.058.047-.1.1-.123.158a2.559 2.559 0 01-.386-.14 1.465 1.465 0 00-.37-.159.788.788 0 00-.369-.052.8.8 0 00-.386.176l-.035.035c-.118.152-.258.216-.422.193a11.4 11.4 0 01-.492-.088 1.483 1.483 0 00-.51-.053c-.176.012-.334.123-.475.334a1.871 1.871 0 01-.826.123 4.876 4.876 0 01-.826-.14l-.809-.211a3.298 3.298 0 00-.826-.14c.152-.177.275-.347.37-.51a1.27 1.27 0 01.28-.387.49.49 0 01.387-.159c.152-.011.37.06.65.211l.176-.158c.14.117.264.158.37.123.093-.047.181-.105.263-.175a.528.528 0 01.229-.141c.07-.035.158.018.263.158 0 .012.006.018.018.018v.017c.012 0 .023.006.035.018h.018c.07.012.175.012.316 0 .129-.024.229-.047.299-.07.293-.06.504-.07.633-.036.14.036.304.182.492.44l.176-.176a.613.613 0 00.14-.193c.164.023.31.017.44-.018.14-.047.27-.088.386-.123a.864.864 0 01.387-.018c.13.024.276.112.44.264.105-.2.228-.316.369-.351a.865.865 0 01.457-.018c.164.023.328.064.492.123.164.059.316.094.457.105a.54.54 0 00.37-.14c.116-.106.198-.305.245-.598.364-.187.616-.404.756-.65a2.99 2.99 0 00.316-.932 5.67 5.67 0 01.106-.492.972.972 0 01.158-.352c.07-.093.158-.181.264-.263.105-.094.246-.2.422-.317.011-.011.023-.017.035-.017l.035-.035a.195.195 0 00-.018-.088v-.106a.634.634 0 01.07-.351c.071-.13.147-.258.23-.387.081-.129.157-.258.228-.387a.833.833 0 00.105-.404.654.654 0 00-.14-.422 2.563 2.563 0 00-.3-.316l-.052.017c-.316.106-.633.2-.95.282-.316.07-.626.175-.93.316a6.77 6.77 0 01-1.495.457 3.433 3.433 0 01-1.547-.035c0-.07-.035-.147-.105-.229a.962.962 0 00-.176-.193l-.106.053a.976.976 0 01-.369.14.844.844 0 01-.298-.052l-.282-.159a1.246 1.246 0 00-.334-.14.676.676 0 01.211-.3c.082-.058.188-.11.317-.157.234.152.457.246.668.28.21.036.416.036.615 0 .21-.034.416-.099.615-.192.2-.094.41-.2.633-.317.117-.07.258-.14.422-.21.164-.071.334-.13.51-.177.175-.058.351-.093.527-.105.176-.023.334-.018.475.018l.07.017c.14-.14.322-.258.545-.351.234-.106.474-.205.72-.3.258-.093.516-.193.774-.298.258-.117.486-.264.685-.44l.106.141h.053c.293 0 .503-.047.632-.14.13-.106.282-.27.457-.493.047-.07.118-.164.211-.281.106-.129.211-.252.317-.37.117-.128.234-.233.351-.316.117-.093.223-.134.317-.123.047 0 .088.036.123.106a2.067 2.067 0 01.193.457c.024.082.047.14.07.176zM27.8 14.52c-.27.128-.451.287-.545.474-.094.188-.17.381-.229.58-.046.2-.111.393-.193.58-.07.176-.228.323-.475.44a.645.645 0 01-.351.44c-.164.081-.34.157-.527.228-.188.058-.358.14-.51.246-.14.105-.211.287-.211.545a5.918 5.918 0 01-.774.351 4.02 4.02 0 01-.861.229 3.71 3.71 0 01-.879.07 2.42 2.42 0 01-.826-.176 2.615 2.615 0 01-.51-.316 1.602 1.602 0 00-.176-.123.646.646 0 01-.158-.123 1.878 1.878 0 01-.351-.492 3.325 3.325 0 01-.229-.598 6.11 6.11 0 01-.14-.633 12.6 12.6 0 01-.088-.598l.65-1.757c-.34-.27-.615-.58-.826-.932a4.873 4.873 0 00-.774-1.002.792.792 0 01-.228.211c-.094.059-.129.152-.106.281l.176.159c-.386.421-.78.902-1.178 1.44a7.654 7.654 0 00-.914 1.6c-.257-.011-.44.053-.544.194a1.729 1.729 0 00-.264.457c-.07.164-.158.316-.264.457-.105.14-.281.2-.527.176-.059.129-.117.27-.176.422-.059.14-.129.275-.21.404a1.105 1.105 0 01-.3.316.68.68 0 01-.44.14.5.5 0 01-.157-.298.735.735 0 01.035-.316c.035-.117.082-.229.14-.334.059-.117.1-.229.123-.334.094-.34.264-.645.51-.914.246-.282.492-.557.738-.826a5.54 5.54 0 00.633-.88c.176-.304.246-.662.211-1.072.152-.011.305-.04.457-.088.164-.058.31-.128.44-.21a.95.95 0 00.316-.335.764.764 0 00.088-.492c-.094-.046-.146-.111-.158-.193a1.132 1.132 0 010-.281c.258-.082.463-.223.615-.422.164-.211.31-.434.44-.668.128-.235.251-.469.369-.703a2.19 2.19 0 01.492-.633c.164.094.328.176.492.246.164.059.322.14.475.246a.979.979 0 00-.194.404 2.26 2.26 0 00-.035.405v.386a.904.904 0 01-.105.405c.187.164.345.357.474.58.13.223.293.41.492.562a.771.771 0 01.475-.158c.176-.012.352-.012.527 0 .188 0 .364-.012.528-.035a.633.633 0 00.404-.299c.047.047.117.07.21.07h.282c.094 0 .176.018.246.053.07.024.112.076.123.158.012.094.006.159-.017.194a3.46 3.46 0 00-.053.175c-.023.094-.03.141-.018.141s0 .041-.035.123a.868.868 0 01-.299.387c-.129.105-.263.21-.404.316a2.443 2.443 0 00-.369.334.657.657 0 00-.158.457c-.258.094-.44.235-.545.422a1.653 1.653 0 00-.211.615 6.527 6.527 0 00-.07.704 2.29 2.29 0 01-.123.65l.158.176.14-.176c.165.234.358.38.58.44.235.058.475.076.721.052.117-.176.252-.316.405-.422.164-.105.334-.193.51-.263.187-.07.374-.135.562-.194a4.01 4.01 0 00.562-.21c.14-.071.258-.147.352-.23.105-.081.217-.175.334-.28.351-.329.697-.65 1.037-.967.352-.317.703-.639 1.055-.967.07 0 .117.035.14.105.024.07.035.153.035.246 0 .083-.006.17-.017.264v.194zm12.146-1.899l-.246.246-.14.176a1.54 1.54 0 01-.141.158 6.508 6.508 0 01-.229.264 3.209 3.209 0 00-.263.299 1.6 1.6 0 01-.282.28c-.14-.034-.251-.017-.334.054-.07.07-.14.152-.21.246l-.176.246a.185.185 0 01-.194.088 9.196 9.196 0 01-.843.404 2.85 2.85 0 00-.809.475l-.14-.141-1.829.879a.7.7 0 00-.175.105 1.588 1.588 0 01-.176.123c-.258.141-.528.27-.809.387-.27.106-.539.205-.808.299l-.229.07c.094.235.094.399 0 .492a.882.882 0 01-.404.211 4.13 4.13 0 01-.58.07c-.211.012-.375.053-.492.124a2.663 2.663 0 00-.44-.035c-.14.011-.287.029-.44.052a3.25 3.25 0 01-.456.035c-.141 0-.293-.017-.457-.052h-.036c-.199.094-.375.111-.527.053a.987.987 0 01-.387-.247 3.317 3.317 0 01-.334-.439 3.66 3.66 0 00-.299-.475 4.975 4.975 0 01-.263-.404 3.085 3.085 0 01-.264-.562 1.847 1.847 0 01-.14-.598.775.775 0 01.123-.545c.105-.152.193-.316.263-.492.059-.176.088-.381.088-.615v-.229a1.382 1.382 0 01-.017-.228c.058 0 .123.005.193.017h.193a.283.283 0 00.159-.07c.046-.047.07-.123.07-.229a.167.167 0 00-.07-.14.278.278 0 01-.07-.106c.07-.105.134-.187.193-.246.07-.07.129-.135.175-.193a.81.81 0 00.106-.229.815.815 0 00-.018-.369c.14-.246.305-.463.492-.65.2-.2.405-.381.616-.545.21-.176.427-.346.65-.51.223-.164.434-.34.633-.527.223.093.398.093.527 0 .14-.094.264-.194.37-.3a1.71 1.71 0 01.316-.28c.105-.07.246-.041.422.087l.035.036c.316-.317.633-.457.949-.422.328.035.603.14.826.316.234.176.387.381.457.615.07.223.006.375-.193.457a.625.625 0 01.193.458.756.756 0 01-.14.457c-.106.14-.2.287-.282.439l-.228.457a7.74 7.74 0 01-.387.773 1.82 1.82 0 01-.598.598c-.21-.059-.357-.035-.439.07-.07.106-.123.223-.158.352a1.06 1.06 0 01-.123.281c-.047.07-.147.047-.3-.07l-.034-.035-.035.035c-.094.094-.17.2-.229.316a.532.532 0 01-.21.264 2.76 2.76 0 00-.335-.088 16.772 16.772 0 01-.334-.07c0 .246-.047.44-.14.58-.094.14-.217.258-.37.351-.14.082-.304.153-.492.211a3.559 3.559 0 00-.562.194c-.176.07-.346.164-.51.28a1.12 1.12 0 00-.37.458.701.701 0 00.44.229c.176.011.358.011.545 0a4.31 4.31 0 01.545-.036c.188 0 .352.047.492.141l.018.018.017-.018c.282-.035.551-.1.809-.193.27-.106.527-.211.774-.317.257-.117.515-.223.773-.316.27-.106.545-.182.826-.229a.31.31 0 00.229.159.842.842 0 00.298-.018l.018-.035a2.215 2.215 0 01.176-.44.91.91 0 01.299-.298c.117-.07.24-.124.369-.159a2.66 2.66 0 01.44-.07c.152-.012.304-.03.456-.053h.035l.018-.053c.047-.14.105-.234.176-.28a.805.805 0 01.246-.124c.094-.023.187-.04.281-.053a.704.704 0 00.299-.105c.21.07.387.047.527-.07.14-.118.276-.24.405-.37l.14.176.053-.07c.176-.164.305-.287.387-.37.093-.081.181-.152.263-.21a1.7 1.7 0 01.282-.194 18.8 18.8 0 00.949-.615c.164-.105.322-.222.474-.351.059.023.088.07.088.14v.176a.551.551 0 00-.035.106c0 .046.012.082.035.105zm-7.277-2.197c-.012-.012-.023-.018-.035-.018l-.018-.017c-.246-.13-.451-.188-.615-.176a.809.809 0 00-.457.14 1.616 1.616 0 00-.37.335 3.458 3.458 0 01-.35.369 1.25 1.25 0 01-.423.246c-.164.058-.363.052-.597-.018l-.106.563a7.816 7.816 0 00-.053.545c-.199.07-.357.17-.474.298-.106.13-.2.27-.281.422-.07.153-.141.317-.211.492-.059.165-.14.323-.246.475l.07.088c.047-.023.1-.006.158.053l.123.123c.13-.188.299-.346.51-.475.223-.129.445-.246.668-.351.234-.118.457-.24.668-.37.21-.128.369-.298.475-.51a1.37 1.37 0 00.843-.632c.188-.316.346-.645.475-.985.023-.07.064-.17.123-.298.07-.141.111-.24.123-.3zm17.965 2.197l-.246.246-.14.176a1.54 1.54 0 01-.142.158 6.508 6.508 0 01-.228.264 3.209 3.209 0 00-.264.299 1.6 1.6 0 01-.281.28c-.14-.034-.252-.017-.334.054-.07.07-.14.152-.21.246l-.177.246a.185.185 0 01-.193.088 9.196 9.196 0 01-.844.404 2.86 2.86 0 00-.808.475l-.141-.141-1.828.879a.7.7 0 00-.176.105 1.588 1.588 0 01-.176.123c-.258.141-.527.27-.808.387-.27.106-.54.205-.809.299l-.228.07c.093.235.093.399 0 .492a.882.882 0 01-.405.211 4.13 4.13 0 01-.58.07c-.21.012-.375.053-.492.124a2.663 2.663 0 00-.44-.035 6.27 6.27 0 00-.439.052 3.25 3.25 0 01-.457.035 2.2 2.2 0 01-.457-.052h-.035c-.2.094-.375.111-.527.053a.987.987 0 01-.387-.247 3.317 3.317 0 01-.334-.439 3.66 3.66 0 00-.299-.475 4.975 4.975 0 01-.264-.404 3.085 3.085 0 01-.263-.562 1.847 1.847 0 01-.14-.598.775.775 0 01.122-.545 2.42 2.42 0 00.264-.492c.058-.176.088-.381.088-.615v-.229a1.382 1.382 0 01-.018-.228c.059 0 .123.005.193.017h.194a.283.283 0 00.158-.07c.047-.047.07-.123.07-.229a.167.167 0 00-.07-.14.278.278 0 01-.07-.106c.07-.105.135-.187.193-.246.07-.07.129-.135.176-.193a.81.81 0 00.105-.229.815.815 0 00-.017-.369c.14-.246.304-.463.492-.65.2-.2.404-.381.615-.545.211-.176.428-.346.65-.51.223-.164.434-.34.633-.527.223.093.399.093.528 0 .14-.094.263-.194.369-.3a1.71 1.71 0 01.316-.28c.106-.07.246-.041.422.087l.035.036c.317-.317.633-.457.95-.422.328.035.603.14.826.316.234.176.386.381.457.615.07.223.006.375-.194.457a.625.625 0 01.194.458.756.756 0 01-.14.457c-.106.14-.2.287-.282.439l-.229.457c-.117.27-.246.527-.386.773a1.82 1.82 0 01-.598.598c-.211-.059-.358-.035-.44.07-.07.106-.123.223-.158.352a1.06 1.06 0 01-.123.281c-.047.07-.146.047-.299-.07l-.035-.035-.035.035c-.094.094-.17.2-.228.316a.532.532 0 01-.211.264 2.76 2.76 0 00-.334-.088 16.772 16.772 0 01-.334-.07c0 .246-.047.44-.141.58-.094.14-.217.258-.37.351-.14.082-.304.153-.491.211a3.559 3.559 0 00-.563.194c-.176.07-.346.164-.51.28a1.12 1.12 0 00-.369.458.701.701 0 00.44.229c.175.011.357.011.545 0 .187-.024.369-.036.545-.036.187 0 .351.047.492.141l.017.018.018-.018c.281-.035.55-.1.809-.193.27-.106.527-.211.773-.317.258-.117.516-.223.773-.316.27-.106.545-.182.827-.229a.31.31 0 00.228.159.842.842 0 00.299-.018l.017-.035a2.215 2.215 0 01.176-.44.91.91 0 01.3-.298c.116-.07.24-.124.368-.159a2.66 2.66 0 01.44-.07c.152-.012.304-.03.457-.053h.035l.017-.053c.047-.14.106-.234.176-.28a.805.805 0 01.246-.124c.094-.023.188-.04.282-.053a.704.704 0 00.298-.105c.211.07.387.047.528-.07.14-.118.275-.24.404-.37l.14.176.053-.07c.176-.164.305-.287.387-.37.094-.081.182-.152.264-.21a1.7 1.7 0 01.281-.194 18.535 18.535 0 00.949-.615c.164-.105.323-.222.475-.351.059.023.088.07.088.14v.176a.551.551 0 00-.035.106c0 .046.011.082.035.105zm-7.278-2.197c-.011-.012-.023-.018-.035-.018l-.017-.017c-.246-.13-.452-.188-.616-.176a.809.809 0 00-.457.14 1.616 1.616 0 00-.369.335 3.458 3.458 0 01-.351.369 1.25 1.25 0 01-.422.246c-.164.058-.363.052-.598-.018l-.105.563a7.816 7.816 0 00-.053.545c-.2.07-.357.17-.475.298-.105.13-.199.27-.28.422a9.935 9.935 0 00-.212.492c-.058.165-.14.323-.246.475l.07.088c.047-.023.1-.006.159.053l.123.123c.129-.188.298-.346.51-.475.222-.129.445-.246.667-.351.235-.118.457-.24.668-.37.211-.128.37-.298.475-.51a1.37 1.37 0 00.844-.632c.187-.316.345-.645.474-.985.024-.07.065-.17.123-.298a1.4 1.4 0 00.123-.3zm17.385 2.83c-.105.562-.293 1.02-.562 1.371-.258.34-.61.685-1.055 1.037.082.035.129.076.14.123a.287.287 0 01.036.158l-.035.088a.496.496 0 00-.3-.123.415.415 0 00-.263.053.97.97 0 00-.246.158 3.527 3.527 0 00-.246.194c-.258 0-.527.04-.809.123-.28.07-.556.123-.826.158a1.635 1.635 0 01-.72-.053c-.223-.082-.405-.275-.545-.58a2.244 2.244 0 00-.3-.088 2.592 2.592 0 00-.28-.088c-.2.375-.446.738-.739 1.09a8.19 8.19 0 01-.949.967 8.436 8.436 0 01-1.125.79 5.747 5.747 0 01-1.16.546l-.053.017a.517.517 0 00-.123-.14.148.148 0 00-.123-.018 1.232 1.232 0 01-.14.035.44.44 0 01-.194.035l-.123.211c-.164-.117-.264-.252-.299-.404a.422.422 0 00-.264-.299l-.158.194-.053-.053a2.74 2.74 0 01-.544-.826 6.426 6.426 0 01-.545-2.215 4.577 4.577 0 010-.985 1.45 1.45 0 00-.334-.246.425.425 0 01-.229-.316l.018-.018c.023-.14.093-.234.21-.28a1.09 1.09 0 01.352-.089 4.38 4.38 0 01.37-.017c.117 0 .193-.024.228-.07a.33.33 0 00-.088-.212 2.734 2.734 0 00-.14-.193c0-.117.029-.205.087-.264.059-.058.123-.11.194-.158.07-.047.134-.088.193-.123s.088-.082.088-.14a.217.217 0 00-.035-.123.782.782 0 01-.07-.141c.175-.024.28-.082.316-.176a.812.812 0 01.228-.299.278.278 0 01-.035-.299c.047-.117.1-.228.158-.334.059-.117.1-.222.123-.316.036-.106.006-.2-.087-.281h-.018c0-.012-.006-.018-.018-.018.246-.726.487-1.453.721-2.18a59.51 59.51 0 01.774-2.18c.28-.714.58-1.417.896-2.109.328-.691.697-1.365 1.108-2.021a.599.599 0 01.122-.352.712.712 0 01.282-.175c.105-.047.222-.088.351-.123.13-.036.246-.082.352-.141a.943.943 0 00.264-.264c.07-.105.105-.258.105-.457.188.047.363.07.527.07.164 0 .323.006.475.018.164.012.316.047.457.106.152.058.299.175.44.351l.017.018a.47.47 0 01-.017.21 1.513 1.513 0 00-.018.212c0 .234.017.474.053.72.047.246.064.493.052.739a1.86 1.86 0 01-.158.668c-.094.199-.27.375-.527.527.117.305.117.58 0 .826a2.944 2.944 0 01-.44.686c-.187.222-.369.45-.545.685a1.347 1.347 0 00-.246.791 1.047 1.047 0 00-.44.404c-.105.165-.21.34-.316.528a3.086 3.086 0 01-.334.527c-.117.153-.292.264-.527.334a2.718 2.718 0 01-.58 1.125c-.281.328-.568.65-.861.967a8.83 8.83 0 00-.791.984 2.1 2.1 0 00-.334 1.178c-.328.316-.545.68-.65 1.09a5.66 5.66 0 00-.141 1.266c0 .128.006.257.017.386.012.13.018.258.018.387-.094-.059-.176-.035-.246.07l-.018.035c.094.247.2.487.317.721.129.223.287.434.474.633.305-.094.604-.193.897-.299.304-.117.615-.217.931-.299.07-.281.2-.474.387-.58.2-.117.393-.217.58-.299.2-.082.375-.181.528-.298.152-.118.228-.329.228-.633h.035a.663.663 0 00.404-.229c.094-.129.165-.27.211-.422.059-.164.094-.334.106-.51.023-.175.04-.333.053-.474a.393.393 0 01-.036-.246c.024-.117.041-.234.053-.352.024-.129.03-.258.018-.386a.712.712 0 00-.088-.352v-.035l.017-.035a4.06 4.06 0 01.176-.317 2.9 2.9 0 00.158-.334c.118-.316.252-.562.405-.738.152-.176.416-.264.79-.264.235.141.37.293.405.457.047.165.047.34 0 .528-.047.187-.1.386-.158.597-.059.2-.07.399-.035.598l.035.053a.354.354 0 00-.194.105 2.89 2.89 0 00-.175.194l-.176.21c-.047.07-.088.13-.123.176a.882.882 0 01.14.405l.036.369c.023.105.07.205.14.299.082.082.223.129.422.14.211.024.428.053.65.088.223.035.44.059.65.07.224 0 .434-.023.634-.07a1.31 1.31 0 00.58-.299c0-.152.03-.252.088-.299a.546.546 0 01.228-.087 2.27 2.27 0 01.282-.018.321.321 0 00.228-.14.381.381 0 01-.14-.07c-.012-.036-.06-.018-.141.052l-.053-.246.105-.07c.082.07.164.093.247.07a.923.923 0 00.228-.14c.082-.071.158-.142.229-.212a.917.917 0 01.228-.176l.106-.158.14.053zm-5.308-11.18a.964.964 0 00-.123.053c-.165.082-.34.176-.528.281a3.275 3.275 0 00-.527.37 1.818 1.818 0 00-.387.456 1.017 1.017 0 00-.158.563v.176c0 .07.012.117.035.14a.382.382 0 00-.14.158 3.06 3.06 0 01-.141.247 1.185 1.185 0 01-.194.246.535.535 0 01-.28.14c.105.153.157.31.157.475 0 .152-.029.305-.087.457a2.181 2.181 0 01-.247.457c-.093.14-.187.275-.28.404l-.071-.052c.058.234.064.457.017.668a2.89 2.89 0 01-.175.597 5.84 5.84 0 01-.246.563 3.31 3.31 0 00-.229.597c.094-.105.176-.216.246-.334l.246-.351c.024.023.065.058.123.105.07.035.117.053.141.053a2.834 2.834 0 01-.105-.193 2.879 2.879 0 00-.106-.194v-.035c.152-.258.34-.48.563-.668.222-.2.433-.398.632-.598 0-.328.065-.591.194-.79a3.64 3.64 0 01.457-.563c.175-.176.328-.346.457-.51.14-.176.21-.392.21-.65a1.85 1.85 0 00-.017-.229.98.98 0 00-.053-.246l.053-.017c.223-.07.37-.17.44-.3a.97.97 0 00.105-.439 2.5 2.5 0 00-.017-.51c-.012-.187 0-.363.035-.527zm8.507 4.957c-.21.082-.328.205-.351.37a3.593 3.593 0 00-.035.51 2.25 2.25 0 01-.018.491c-.023.153-.14.252-.351.3a1.639 1.639 0 00-.317-.388 10.726 10.726 0 00-.351-.369 1.796 1.796 0 01-.282-.404.89.89 0 01-.07-.51l.879-1.02a.99.99 0 01.334.176c.082.07.152.153.21.247.06.093.112.193.16.298.058.094.122.194.192.3zm3.41 7.875c.012.258-.011.44-.07.545a.865.865 0 01-.175.264c-.07.058-.135.129-.194.21-.047.071-.07.2-.07.387-.27.293-.486.51-.65.65-.165.13-.323.241-.475.335a11.758 11.758 0 00-1.283.773l-.123.018c-.036.176-.1.275-.194.299a.756.756 0 01-.299.052c-.105 0-.21.012-.316.036-.105.023-.193.123-.264.298a1.413 1.413 0 01-.51.07 6.775 6.775 0 00-.544-.017c-.07 0-.164-.006-.282-.017a.623.623 0 00-.263.017.434.434 0 00-.158.088.595.595 0 01-.159.14.235.235 0 01-.175.036c-.06 0-.112-.047-.159-.14a.72.72 0 01-.386 0 1.018 1.018 0 01-.334-.177 1.796 1.796 0 01-.3-.298 6.727 6.727 0 00-.245-.3 1.51 1.51 0 00-.194-.193 2.89 2.89 0 01-.193-.175 1.133 1.133 0 01-.281-.492 2.71 2.71 0 01-.106-.616 3.814 3.814 0 01.123-1.195.958.958 0 00.229-.352c.035-.14.064-.28.088-.421.035-.141.07-.276.105-.405a.931.931 0 01.229-.369c0-.152.023-.293.07-.422.059-.129.129-.252.21-.369.095-.117.194-.223.3-.316a8.04 8.04 0 00.316-.3h.281a.655.655 0 01.264.018.363.363 0 01.211.106.487.487 0 01.14.246c.083.316.06.574-.07.773a4.36 4.36 0 01-.404.545 2.63 2.63 0 00-.37.545c-.093.188-.07.428.071.72-.129 0-.217.036-.264.106a1.21 1.21 0 00-.087.246.971.971 0 01-.07.247c-.036.082-.106.14-.212.175.07.07.106.194.106.37.012.175.03.345.053.51a.977.977 0 00.158.368c.082.094.228.1.44.018a.69.69 0 00.544.158c.223-.023.428-.03.615-.017.164-.106.305-.159.422-.159a.796.796 0 01.334.036l.334.07a.804.804 0 00.422-.053c.047-.2.129-.316.246-.351.117-.036.235-.053.352-.053.117-.012.222-.035.316-.07.106-.036.176-.153.211-.352a.476.476 0 01.334-.193l.387-.07a.934.934 0 00.369-.141c.117-.082.2-.235.246-.457a10.842 10.842 0 00.65-.528c.06-.047.135-.1.229-.158l.475-.299zm11.76-2.285l-.246.246-.14.176c-.035.047-.082.1-.141.158a6.591 6.591 0 01-.228.264 3.21 3.21 0 00-.264.299 1.6 1.6 0 01-.281.28c-.141-.034-.252-.017-.334.054a2.3 2.3 0 00-.211.246l-.176.246a.185.185 0 01-.194.088 9.196 9.196 0 01-.843.404 2.85 2.85 0 00-.809.475l-.14-.141-1.829.879a.7.7 0 00-.175.105 1.597 1.597 0 01-.176.123c-.258.141-.528.27-.809.387-.27.106-.539.205-.808.299l-.229.07c.094.235.094.399 0 .492a.881.881 0 01-.404.211 4.13 4.13 0 01-.58.07c-.211.012-.375.053-.492.124a2.663 2.663 0 00-.44-.035c-.14.011-.287.029-.44.052a3.251 3.251 0 01-.456.035c-.141 0-.293-.017-.457-.052h-.036c-.199.094-.375.111-.527.053a.987.987 0 01-.387-.247 3.326 3.326 0 01-.334-.439 3.65 3.65 0 00-.298-.475 4.998 4.998 0 01-.264-.404 3.092 3.092 0 01-.264-.562 1.85 1.85 0 01-.14-.598.775.775 0 01.123-.545c.105-.152.193-.316.263-.492.059-.176.088-.381.088-.615v-.229a1.393 1.393 0 01-.017-.228c.058 0 .123.005.193.017h.193a.284.284 0 00.159-.07c.046-.047.07-.123.07-.229a.167.167 0 00-.07-.14.277.277 0 01-.07-.106c.07-.105.134-.187.193-.246a2.4 2.4 0 00.175-.193.812.812 0 00.106-.229.816.816 0 00-.018-.369 3.06 3.06 0 01.493-.65c.199-.2.404-.381.615-.545.21-.176.427-.346.65-.51a6.85 6.85 0 00.633-.527c.223.093.398.093.527 0 .14-.094.264-.194.37-.3.105-.116.21-.21.316-.28.105-.07.246-.041.422.087l.035.036c.316-.317.633-.457.95-.422.327.035.603.14.825.316.235.176.387.381.457.615.07.223.006.375-.193.457a.625.625 0 01.193.458.756.756 0 01-.14.457c-.106.14-.2.287-.282.439l-.228.457a7.74 7.74 0 01-.387.773 1.82 1.82 0 01-.597.598c-.211-.059-.358-.035-.44.07-.07.106-.123.223-.158.352a1.058 1.058 0 01-.123.281c-.047.07-.147.047-.299-.07l-.035-.035-.035.035c-.094.094-.17.2-.229.316a.532.532 0 01-.21.264 2.765 2.765 0 00-.335-.088 16.786 16.786 0 01-.334-.07c0 .246-.047.44-.14.58-.094.14-.217.258-.37.351-.14.082-.304.153-.492.211a3.559 3.559 0 00-.562.194c-.176.07-.346.164-.51.28a1.119 1.119 0 00-.37.458.7.7 0 00.44.229c.176.011.358.011.545 0a4.31 4.31 0 01.545-.036c.188 0 .352.047.492.141l.018.018.017-.018c.282-.035.551-.1.81-.193.269-.106.526-.211.773-.317.257-.117.515-.223.773-.316.27-.106.545-.182.826-.229a.31.31 0 00.229.159.842.842 0 00.299-.018l.017-.035a2.187 2.187 0 01.176-.44.91.91 0 01.299-.298c.117-.07.24-.124.369-.159a2.66 2.66 0 01.44-.07c.152-.012.304-.03.456-.053h.035l.018-.053c.047-.14.105-.234.176-.28a.807.807 0 01.246-.124c.094-.023.187-.04.281-.053a.705.705 0 00.299-.105c.21.07.387.047.527-.07a5.92 5.92 0 00.405-.37l.14.176.053-.07c.176-.164.305-.287.387-.37.093-.081.181-.152.263-.21.082-.07.176-.135.282-.194a18.8 18.8 0 00.949-.615c.164-.105.322-.222.474-.351.06.023.088.07.088.14v.176a.537.537 0 00-.035.106c0 .046.012.082.035.105zm-7.277-2.197c-.012-.012-.023-.018-.035-.018l-.018-.017c-.246-.13-.45-.188-.615-.176a.808.808 0 00-.457.14 1.616 1.616 0 00-.37.335 3.458 3.458 0 01-.35.369 1.251 1.251 0 01-.423.246c-.164.058-.363.052-.597-.018l-.106.563a7.816 7.816 0 00-.052.545c-.2.07-.358.17-.475.298-.105.13-.2.27-.281.422-.07.153-.14.317-.211.492a2.04 2.04 0 01-.246.475l.07.088c.047-.023.1-.006.158.053l.123.123c.13-.188.3-.346.51-.475.223-.129.445-.246.668-.351.234-.118.457-.24.668-.37a1.24 1.24 0 00.475-.51 1.37 1.37 0 00.843-.632c.188-.316.346-.645.475-.985.023-.07.064-.17.123-.298.07-.141.111-.24.123-.3z" fill="#231F20"/></svg>